<svg width="64" height="64" viewBox="0 0 64 64" fill="none" xmlns="http://www.w3.org/2000/svg">
<path fill-rule="evenodd" clip-rule="evenodd" d="M58.8387 2.06452H62.9677C63.5375 2.06452 64 2.52594 64 3.09677V41.2903C64 41.8612 63.5375 42.3226 62.9677 42.3226H33.0323V62.9677C33.0323 63.5386 32.5698 64 32 64H1.03226C0.462452 64 0 63.5386 0 62.9677V25.8065C0 25.2356 0.462452 24.7742 1.03226 24.7742H10.3226V3.09677C10.3226 2.52594 10.785 2.06452 11.3548 2.06452H15.4839V0H17.5484V2.06452H25.8065V0H27.871V2.06452H36.129V0H38.1936V2.06452H46.4516V0H48.5161V2.06452H56.7742V0H58.8387V2.06452ZM15.4839 6.19355V4.12903H12.3871V8.25806H61.9355V4.12903H58.8387V6.19355H56.7742V4.12903H48.5161V6.19355H46.4516V4.12903H38.1936V6.19355H36.129V4.12903H27.871V6.19355H25.8064V4.12903H17.5484V6.19355H15.4839ZM30.9677 61.9355H2.06452V26.8387H20.6452V36.129C20.6452 36.6999 21.1076 37.1613 21.6774 37.1613H30.9677V61.9355ZM22.7489 25.4183L25.1623 27.8317C26.1151 27.649 26.8387 26.8119 26.8387 25.8065C26.8387 24.6679 25.9128 23.7419 24.7742 23.7419C23.7688 23.7419 22.9316 24.4655 22.7489 25.4183ZM22.7097 28.2983L29.5081 35.0968H22.7097V28.2983ZM33.0323 36.129V40.2581H61.9355V10.3226H12.3871V24.7742H20.7917C21.2532 22.9977 22.8563 21.6774 24.7742 21.6774C27.0514 21.6774 28.9032 23.5293 28.9032 25.8064C28.9032 27.3672 28.0237 28.7112 26.7437 29.4132L32.7288 35.3982C32.9166 35.585 33.0323 35.8431 33.0323 36.129Z" fill="#E35113"/>
<path fill-rule="evenodd" clip-rule="evenodd" d="M20.6451 15.4839C20.6451 13.2067 22.497 11.3549 24.7742 11.3549C27.0513 11.3549 28.9032 13.2067 28.9032 15.4839C28.9032 17.7611 27.0513 19.6129 24.7742 19.6129C22.497 19.6129 20.6451 17.7611 20.6451 15.4839ZM22.7097 15.4839C22.7097 16.6225 23.6356 17.5484 24.7742 17.5484C25.9128 17.5484 26.8387 16.6225 26.8387 15.4839C26.8387 14.3453 25.9128 13.4194 24.7742 13.4194C23.6356 13.4194 22.7097 14.3453 22.7097 15.4839Z" fill="#E35113"/>
<path fill-rule="evenodd" clip-rule="evenodd" d="M30.9677 15.4839C30.9677 13.2067 32.8196 11.3549 35.0967 11.3549C37.3739 11.3549 39.2258 13.2067 39.2258 15.4839C39.2258 17.7611 37.3739 19.6129 35.0967 19.6129C32.8196 19.6129 30.9677 17.7611 30.9677 15.4839ZM33.0322 15.4839C33.0322 16.6225 33.9582 17.5484 35.0967 17.5484C36.2353 17.5484 37.1613 16.6225 37.1613 15.4839C37.1613 14.3453 36.2353 13.4194 35.0967 13.4194C33.9582 13.4194 33.0322 14.3453 33.0322 15.4839Z" fill="#E35113"/>
<path fill-rule="evenodd" clip-rule="evenodd" d="M41.2903 15.4839C41.2903 13.2067 43.1422 11.3549 45.4194 11.3549C47.6965 11.3549 49.5484 13.2067 49.5484 15.4839C49.5484 17.7611 47.6965 19.6129 45.4194 19.6129C43.1422 19.6129 41.2903 17.7611 41.2903 15.4839ZM43.3549 15.4839C43.3549 16.6225 44.2808 17.5484 45.4194 17.5484C46.558 17.5484 47.4839 16.6225 47.4839 15.4839C47.4839 14.3453 46.558 13.4194 45.4194 13.4194C44.2808 13.4194 43.3549 14.3453 43.3549 15.4839Z" fill="#E35113"/>
<path fill-rule="evenodd" clip-rule="evenodd" d="M59.871 15.4839C59.871 17.7611 58.0191 19.6129 55.7419 19.6129C53.4648 19.6129 51.6129 17.7611 51.6129 15.4839C51.6129 13.2067 53.4648 11.3549 55.7419 11.3549C58.0191 11.3549 59.871 13.2067 59.871 15.4839ZM57.8065 15.4839C57.8065 14.3453 56.8805 13.4194 55.7419 13.4194C54.6034 13.4194 53.6774 14.3453 53.6774 15.4839C53.6774 16.6225 54.6034 17.5484 55.7419 17.5484C56.8805 17.5484 57.8065 16.6225 57.8065 15.4839Z" fill="#E35113"/>
<path fill-rule="evenodd" clip-rule="evenodd" d="M30.9677 25.8064C30.9677 23.5292 32.8196 21.6774 35.0967 21.6774C37.3739 21.6774 39.2258 23.5292 39.2258 25.8064C39.2258 28.0836 37.3739 29.9354 35.0967 29.9354C32.8196 29.9354 30.9677 28.0836 30.9677 25.8064ZM33.0322 25.8064C33.0322 26.945 33.9582 27.8709 35.0967 27.8709C36.2353 27.8709 37.1613 26.945 37.1613 25.8064C37.1613 24.6678 36.2353 23.7419 35.0967 23.7419C33.9582 23.7419 33.0322 24.6678 33.0322 25.8064Z" fill="#E35113"/>
<path fill-rule="evenodd" clip-rule="evenodd" d="M41.2903 25.8064C41.2903 23.5292 43.1422 21.6774 45.4194 21.6774C47.6965 21.6774 49.5484 23.5292 49.5484 25.8064C49.5484 28.0836 47.6965 29.9354 45.4194 29.9354C43.1422 29.9354 41.2903 28.0836 41.2903 25.8064ZM43.3549 25.8064C43.3549 26.945 44.2808 27.8709 45.4194 27.8709C46.558 27.8709 47.4839 26.945 47.4839 25.8064C47.4839 24.6678 46.558 23.7419 45.4194 23.7419C44.2808 23.7419 43.3549 24.6678 43.3549 25.8064Z" fill="#E35113"/>
<path fill-rule="evenodd" clip-rule="evenodd" d="M59.871 25.8064C59.871 28.0836 58.0191 29.9354 55.7419 29.9354C53.4648 29.9354 51.6129 28.0836 51.6129 25.8064C51.6129 23.5292 53.4648 21.6774 55.7419 21.6774C58.0191 21.6774 59.871 23.5292 59.871 25.8064ZM57.8065 25.8064C57.8065 24.6678 56.8805 23.7419 55.7419 23.7419C54.6034 23.7419 53.6774 24.6678 53.6774 25.8064C53.6774 26.945 54.6034 27.8709 55.7419 27.8709C56.8805 27.8709 57.8065 26.945 57.8065 25.8064Z" fill="#E35113"/>
<path d="M9.01523 39.1314L7.71768 37.1845L6 38.3293L8.06452 41.4261C8.24516 41.6975 8.54348 41.8668 8.86865 41.8844C8.88619 41.8865 8.90477 41.8865 8.92335 41.8865C9.2289 41.8865 9.52 41.7512 9.71613 41.5159L14.8774 35.3223L13.2919 34L9.01523 39.1314Z" fill="#E35113"/>
<path d="M9.01523 52.1314L7.71768 50.1845L6 51.3293L8.06452 54.4261C8.24516 54.6975 8.54348 54.8668 8.86865 54.8844C8.88619 54.8865 8.90477 54.8865 8.92335 54.8865C9.2289 54.8865 9.52 54.7512 9.71613 54.5159L14.8774 48.3223L13.2919 47L9.01523 52.1314Z" fill="#E35113"/>
</svg>
