<svg width="72" height="64" viewBox="0 0 72 64" fill="none" xmlns="http://www.w3.org/2000/svg">
<path fill-rule="evenodd" clip-rule="evenodd" d="M62.7876 9.47737H57.498L53.2675 3.13109C53.0573 1.34962 51.55 0.00560551 49.7562 0H21.3241C19.5303 0.00560551 18.023 1.34962 17.8127 3.13109L13.5823 9.47737H8.2927C3.71493 9.48259 0.00522279 13.1923 0 17.7701V58.0489C0.00391666 61.3186 2.6536 63.9683 5.92336 63.9722H65.1569C68.4267 63.9683 71.0763 61.3186 71.0803 58.0489V17.7701C71.075 13.1923 67.3653 9.48259 62.7876 9.47737ZM21.3241 2.36934H49.7562C50.4105 2.36934 50.9409 2.89974 50.9409 3.55401C50.9409 4.20829 50.4105 4.73868 49.7562 4.73868H21.3241C20.6698 4.73868 20.1394 4.20829 20.1394 3.55401C20.1394 2.89974 20.6698 2.36934 21.3241 2.36934ZM21.3241 7.10803C20.3498 7.10688 19.4191 6.70351 18.7522 5.99325L16.429 9.47737H54.6512L52.3281 5.99325C51.6611 6.70351 50.7305 7.10688 49.7562 7.10803H21.3241ZM62.7876 11.8467C63.5065 11.8513 64.2184 11.9878 64.888 12.2495C64.2914 13.1924 63.9739 14.2849 63.9722 15.4007V36.7248C63.9722 37.3791 63.4418 37.9095 62.7876 37.9095H41.749C42.2554 36.6639 42.5509 35.3427 42.6233 34.0001C42.9584 29.9958 40.0135 26.4655 36.014 26.077C34.049 25.9385 32.1158 26.6289 30.683 27.9807C29.25 29.327 28.4357 31.2046 28.4321 33.1708C28.4128 34.7942 28.7172 36.4051 29.3277 37.9095H8.2927C7.63842 37.9095 7.10803 37.3791 7.10803 36.7248V15.4007C7.10635 14.2849 6.78886 13.1924 6.19228 12.2495C6.86186 11.9878 7.5738 11.8513 8.2927 11.8467H62.7876ZM32.3023 29.7097C31.3446 30.606 30.8012 31.8591 30.8014 33.1708C30.7886 34.2061 30.9381 35.237 31.2445 36.2261C31.8591 35.0784 33.0536 34.3601 34.3555 34.3555H36.7248C38.0275 34.3608 39.2221 35.0805 39.8357 36.2296C40.0742 35.4605 40.2155 34.6645 40.2563 33.8603C40.4822 31.1653 38.5392 28.7731 35.8553 28.4416C34.5465 28.3544 33.2601 28.8135 32.3023 29.7097ZM37.9095 42.6482H33.1708V37.9095C33.1708 37.2552 33.7012 36.7248 34.3555 36.7248H36.7248C37.3791 36.7248 37.9095 37.2552 37.9095 37.9095V42.6482ZM39.0941 47.3868V45.0175H31.9861V47.3868H39.0941ZM33.1708 49.7562H37.9095V54.4949C37.9095 55.8034 36.8487 56.8642 35.5401 56.8642C34.2316 56.8642 33.1708 55.8034 33.1708 54.4949V49.7562ZM65.1569 61.6029C67.1197 61.6029 68.7109 60.0117 68.7109 58.0489V17.7701C68.7095 16.1667 68.0555 14.6329 66.8996 13.5218C66.5397 14.0828 66.3462 14.7343 66.3416 15.4007V36.7248C66.3416 38.6876 64.7504 40.2788 62.7876 40.2788H40.7527C40.4441 41.0308 40.2832 41.8353 40.2788 42.6482V42.9775C41.0095 43.3974 41.4609 44.1748 41.4635 45.0175V47.3868C41.4609 48.2295 41.0095 49.007 40.2788 49.4268V54.4949C40.2788 57.112 38.1572 59.2336 35.5401 59.2336C32.923 59.2336 30.8014 57.112 30.8014 54.4949V49.4268C30.0708 49.007 29.6193 48.2295 29.6168 47.3868V45.0175C29.6193 44.1748 30.0708 43.3974 30.8014 42.9775V42.6482C30.7973 41.8353 30.6364 41.0308 30.3276 40.2788H8.2927C6.32987 40.2788 4.73868 38.6876 4.73868 36.7248V15.4007C4.73402 14.7343 4.54055 14.0828 4.1807 13.5218C3.02472 14.6329 2.37076 16.1667 2.36934 17.7701V58.0489C2.36934 60.0117 3.96053 61.6029 5.92336 61.6029H65.1569Z" fill="#E35113"/>
<path d="M8.29272 56.8643H5.92338C5.2691 56.8643 4.73871 57.3947 4.73871 58.0489C4.73871 58.7032 5.2691 59.2336 5.92338 59.2336H8.29272C8.947 59.2336 9.47739 58.7032 9.47739 58.0489C9.47739 57.3947 8.947 56.8643 8.29272 56.8643Z" fill="#E35113"/>
<path d="M27.2474 56.8643H13.0314C12.3771 56.8643 11.8467 57.3947 11.8467 58.0489C11.8467 58.7032 12.3771 59.2336 13.0314 59.2336H27.2474C27.9017 59.2336 28.4321 58.7032 28.4321 58.0489C28.4321 57.3947 27.9017 56.8643 27.2474 56.8643Z" fill="#E35113"/>
<path d="M65.1569 56.8643H62.7876C62.1333 56.8643 61.6029 57.3947 61.6029 58.0489C61.6029 58.7032 62.1333 59.2336 62.7876 59.2336H65.1569C65.8112 59.2336 66.3416 58.7032 66.3416 58.0489C66.3416 57.3947 65.8112 56.8643 65.1569 56.8643Z" fill="#E35113"/>
<path d="M58.0489 56.8643H43.8328C43.1785 56.8643 42.6481 57.3947 42.6481 58.0489C42.6481 58.7032 43.1785 59.2336 43.8328 59.2336H58.0489C58.7031 59.2336 59.2335 58.7032 59.2335 58.0489C59.2335 57.3947 58.7031 56.8643 58.0489 56.8643Z" fill="#E35113"/>
</svg>
