<svg width="57" height="64" viewBox="0 0 57 64" fill="none" xmlns="http://www.w3.org/2000/svg">
<path fill-rule="evenodd" clip-rule="evenodd" d="M37.3645 19.2529C37.8352 19.3213 38.2266 19.6509 38.3737 20.1034C38.5209 20.5559 38.3985 21.0527 38.0581 21.3849L34.1244 25.2213L35.0546 30.6367C35.1351 31.1056 34.9425 31.5796 34.5576 31.8593C34.1727 32.1392 33.6624 32.1762 33.2412 31.9548L28.377 29.3992L23.5141 31.9574C23.3311 32.0537 23.1312 32.1012 22.9322 32.1012C22.6732 32.1012 22.4155 32.0208 22.1977 31.8627C21.8127 31.5831 21.6197 31.1092 21.7001 30.6402L22.6275 25.2243L18.6917 21.3899C18.351 21.0579 18.2282 20.5612 18.3751 20.1087C18.522 19.6562 18.913 19.3262 19.3839 19.2577L24.8214 18.4661L27.2517 13.5381C27.4622 13.1113 27.8966 12.8411 28.3725 12.8409H28.3727C28.8484 12.8409 29.2827 13.1109 29.4935 13.5374L31.9266 18.4642L37.3645 19.2529ZM31.549 24.9969C31.4794 24.5914 31.6137 24.1777 31.9082 23.8904L34.4991 21.3636L30.9175 20.8441C30.5104 20.7851 30.1584 20.5294 29.9761 20.1606L28.3735 16.9156L26.7727 20.1613C26.5907 20.5302 26.2389 20.7861 25.8317 20.8453L22.2504 21.3667L24.8426 23.8922C25.1372 24.1793 25.2719 24.5931 25.2024 24.9986L24.5915 28.5658L27.7945 26.8808C28.1586 26.6893 28.5937 26.6892 28.9579 26.8806L32.1617 28.5638L31.549 24.9969Z" fill="#E35113"/>
<path fill-rule="evenodd" clip-rule="evenodd" d="M46.1353 36.9496L56.4673 54.9209C56.7045 55.3336 56.6866 55.8454 56.422 56.2407C56.1566 56.636 55.6903 56.8462 55.2179 56.7829L47.1538 55.7L44.0594 63.2251C43.8781 63.6657 43.4621 63.9651 42.9866 63.9969C42.9586 63.9988 42.9308 63.9996 42.903 63.9996C42.4588 63.9996 42.045 63.763 41.8208 63.3746L31.3904 45.3088L31.3883 45.3047L31.386 45.3003C30.4005 45.4311 29.3958 45.4999 28.375 45.4999C27.3543 45.4999 26.3495 45.4311 25.364 45.3003L25.3619 45.3043L25.3596 45.3088L14.9293 63.3746C14.705 63.763 14.2914 63.9996 13.847 63.9996C13.8193 63.9996 13.7914 63.9988 13.7634 63.9969C13.2879 63.9651 12.8719 63.6657 12.6906 63.2251L9.59639 55.7L1.53227 56.7829C1.06089 56.8462 0.593518 56.636 0.328144 56.2407C0.0627685 55.8454 0.0450185 55.3336 0.282268 54.9209L10.6143 36.9496C7.49402 33.0549 5.62477 28.117 5.62477 22.75C5.62477 10.2056 15.8304 0 28.3748 0C40.9191 0 51.1248 10.2056 51.1248 22.75C51.1248 28.117 49.2554 33.0549 46.1353 36.9496ZM11.783 54.4446L14.0355 59.9224L22.7665 44.7999C18.7795 43.7854 15.21 41.715 12.3735 38.9054L3.71402 53.9674L9.63027 53.173L11.6729 49.8398C12.0335 49.2511 12.8031 49.0665 13.3918 49.4271C13.9804 49.7878 14.1651 50.5574 13.8044 51.146L11.783 54.4446ZM28.3746 43C17.2088 43 8.12464 33.9159 8.12464 22.75C8.12464 11.5841 17.2088 2.5 28.3746 2.5C39.5405 2.5 48.6246 11.5841 48.6246 22.75C48.6246 33.9159 39.5405 43 28.3746 43ZM45.0765 49.8398L47.1191 53.173L53.0354 53.9674L44.3759 38.9054C41.5395 41.715 37.9699 43.7854 33.9829 44.7999L42.7139 59.9224L44.9664 54.4446L42.945 51.146C42.5843 50.5574 42.769 49.7879 43.3576 49.4271C43.9463 49.0663 44.7159 49.2511 45.0765 49.8398Z" fill="#E35113"/>
<path d="M28.3746 6.5C25.5851 6.5 22.833 7.219 20.4156 8.5795C19.814 8.918 19.6008 9.68025 19.9393 10.2819C20.2778 10.8835 21.04 11.097 21.6416 10.7583C23.6855 9.608 26.0138 9 28.3746 9C35.9564 9 42.1246 15.1683 42.1246 22.75C42.1246 24.8218 41.6758 26.8124 40.7905 28.6665C40.4931 29.2895 40.757 30.0356 41.38 30.3331C41.5539 30.4161 41.7371 30.4554 41.9178 30.4554C42.3843 30.4554 42.8321 30.1928 43.0466 29.7436C44.0936 27.5505 44.6246 25.1975 44.6246 22.75C44.6246 13.7898 37.335 6.5 28.3746 6.5Z" fill="#E35113"/>
<path d="M40.0063 32.3028C39.5109 31.822 38.7195 31.8339 38.2388 32.3293L38.211 32.3578C37.7288 32.8516 37.7382 33.6431 38.232 34.1254C38.4752 34.3628 38.7903 34.481 39.1052 34.481C39.43 34.481 39.7548 34.3551 39.9997 34.1043L40.0327 34.0704C40.5135 33.575 40.5017 32.7836 40.0063 32.3028Z" fill="#E35113"/>
<path d="M36.6983 35.2931C36.3651 34.6884 35.6049 34.4683 35.0003 34.8016C32.9839 35.9127 30.6928 36.5 28.3746 36.5C20.7929 36.5 14.6246 30.3317 14.6246 22.7499C14.6246 20.7638 15.0385 18.8483 15.8546 17.0567C16.1409 16.4284 15.8635 15.6872 15.2353 15.4009C14.607 15.1148 13.8658 15.3921 13.5795 16.0203C12.614 18.1396 12.1245 20.4037 12.1245 22.7499C12.1245 31.7102 19.4143 39 28.3745 39C31.1134 39 33.8218 38.3053 36.2068 36.9911C36.8114 36.6578 37.0315 35.8977 36.6983 35.2931Z" fill="#E35113"/>
<path d="M18.2499 11.6123C17.7447 11.1417 16.9537 11.1699 16.4832 11.6749L16.4555 11.7048C15.9867 12.2116 16.0174 13.0024 16.5241 13.4712C16.7645 13.6937 17.0689 13.8037 17.3726 13.8037C17.7089 13.8037 18.0441 13.6688 18.2905 13.4026L18.3125 13.3789C18.783 12.8738 18.755 12.0828 18.2499 11.6123Z" fill="#E35113"/>
</svg>
