<svg width="64" height="64" viewBox="0 0 64 64" fill="none" xmlns="http://www.w3.org/2000/svg">
<path fill-rule="evenodd" clip-rule="evenodd" d="M25.6 6.4C25.6 2.86533 28.4653 0 32 0C35.5346 0 38.4 2.86533 38.4 6.4C38.3965 9.9332 35.5332 12.7965 32 12.8C28.4653 12.8 25.6 9.93467 25.6 6.4ZM27.7333 6.4C27.7333 8.7564 29.6436 10.6667 32 10.6667C34.3564 10.6667 36.2666 8.7564 36.2666 6.4C36.2666 4.0436 34.3564 2.13333 32 2.13333C29.6436 2.13333 27.7333 4.0436 27.7333 6.4Z" fill="#E35113"/>
<path fill-rule="evenodd" clip-rule="evenodd" d="M36.015 13.8667H36.2667C39.2107 13.8702 41.5966 16.256 41.6 19.2V25.6C41.6 27.3674 40.1674 28.8 38.4 28.8H25.6C23.8327 28.8 22.4 27.3674 22.4 25.6V19.2C22.4035 16.256 24.7894 13.8702 27.7334 13.8667H27.9851L28.2102 13.9787C30.597 15.1671 33.4031 15.1671 35.7899 13.9787L36.015 13.8667ZM38.4 26.6667C38.9891 26.6667 39.4667 26.1891 39.4667 25.6V19.2C39.4664 17.5211 38.1686 16.1278 36.4939 16.0086C33.644 17.3312 30.3562 17.3312 27.5062 16.0086C25.8314 16.1278 24.5336 17.5211 24.5334 19.2V25.6C24.5334 26.1891 25.011 26.6667 25.6 26.6667H38.4Z" fill="#E35113"/>
<path fill-rule="evenodd" clip-rule="evenodd" d="M48 41.6C48 38.0653 50.8653 35.2 54.4 35.2C57.9332 35.2034 60.7965 38.0668 60.8 41.6C60.8 45.1346 57.9347 48 54.4 48C50.8653 48 48 45.1346 48 41.6ZM50.1333 41.6C50.1333 43.9564 52.0436 45.8666 54.4 45.8666C56.7564 45.8666 58.6667 43.9564 58.6667 41.6C58.6667 39.2436 56.7564 37.3333 54.4 37.3333C52.0436 37.3333 50.1333 39.2436 50.1333 41.6Z" fill="#E35113"/>
<path fill-rule="evenodd" clip-rule="evenodd" d="M58.4149 49.0667H58.6667C61.6107 49.0701 63.9965 51.456 64 54.4V60.8C64 62.5673 62.5673 64 60.8 64H48C46.2327 64 44.8 62.5673 44.8 60.8V54.4C44.8035 51.456 47.1893 49.0701 50.1333 49.0667H50.3851L50.6101 49.1733C52.9969 50.3616 55.8031 50.3616 58.1899 49.1733L58.4149 49.0667ZM60.8 61.8667C61.3891 61.8667 61.8667 61.3891 61.8667 60.8V54.4C61.8664 52.7211 60.5687 51.3277 58.8939 51.2085C56.0439 52.5312 52.7561 52.5312 49.9061 51.2085C48.2313 51.3277 46.9336 52.7211 46.9333 54.4V60.8C46.9333 61.3891 47.4109 61.8667 48 61.8667H60.8Z" fill="#E35113"/>
<path fill-rule="evenodd" clip-rule="evenodd" d="M3.20001 41.6C3.20001 38.0653 6.06535 35.2 9.60001 35.2C13.1332 35.2034 15.9965 38.0668 16 41.6C16 45.1346 13.1347 48 9.60001 48C6.06535 48 3.20001 45.1346 3.20001 41.6ZM5.33335 41.6C5.33335 43.9564 7.24361 45.8666 9.60001 45.8666C11.9564 45.8666 13.8667 43.9564 13.8667 41.6C13.8667 39.2436 11.9564 37.3333 9.60001 37.3333C7.24361 37.3333 5.33335 39.2436 5.33335 41.6Z" fill="#E35113"/>
<path fill-rule="evenodd" clip-rule="evenodd" d="M13.6149 49.0667H13.8667C16.8107 49.0701 19.1965 51.456 19.2 54.4V60.8C19.2 62.5673 17.7673 64 16 64H3.2C1.43267 64 0 62.5673 0 60.8V54.4C0.00346667 51.456 2.38933 49.0701 5.33333 49.0667H5.58507L5.81013 49.1733C8.19693 50.3616 11.0031 50.3616 13.3899 49.1733L13.6149 49.0667ZM16 61.8667C16.5891 61.8667 17.0667 61.3891 17.0667 60.8V54.4C17.0664 52.7211 15.7687 51.3277 14.0939 51.2085C11.2439 52.5312 7.95613 52.5312 5.10613 51.2085C3.43133 51.3277 2.1336 52.7211 2.13333 54.4V60.8C2.13333 61.3891 2.61093 61.8667 3.2 61.8667H16Z" fill="#E35113"/>
<path d="M42.5829 54.1702C42.5824 54.169 42.5819 54.1678 42.5813 54.1665C42.3504 53.6245 41.7239 53.3723 41.182 53.6033C36.3653 55.6219 31.016 55.9902 25.9681 54.6507L26.9665 54.3574C27.5321 54.1918 27.8564 53.5993 27.6908 53.0337C27.5252 52.4681 26.9327 52.1438 26.3671 52.3094L22.1004 53.5606C22.0844 53.5606 22.0727 53.5787 22.0577 53.5841C21.9589 53.6209 21.8661 53.6723 21.7825 53.7366C21.7455 53.7566 21.7099 53.779 21.6759 53.8038C21.5633 53.9042 21.4741 54.0279 21.4145 54.1665C21.3567 54.3059 21.3291 54.4561 21.3335 54.607C21.3595 54.7514 21.3951 54.8939 21.4401 55.0337C21.4465 55.0486 21.4401 55.0657 21.4519 55.0806L23.5852 59.1627C23.858 59.6853 24.5027 59.8878 25.0252 59.615C25.5477 59.3422 25.7503 58.6975 25.4775 58.175L24.6092 56.5153C30.3444 58.2393 36.5019 57.9042 42.0161 55.5681C42.5585 55.3386 42.8124 54.7127 42.5829 54.1702Z" fill="#E35113"/>
<path d="M60.4875 28.0459C60.0709 27.6295 59.3957 27.6295 58.9792 28.0459L57.4699 29.5553C56.5867 20.2126 50.6551 12.1051 42.0181 8.43526C41.4761 8.20432 40.8496 8.45646 40.6187 8.99846C40.3877 9.54046 40.6399 10.167 41.1819 10.3979C48.9299 13.6909 54.3157 20.8871 55.2907 29.2491L54.0875 28.0459C53.6637 27.6366 52.9885 27.6483 52.5792 28.0721C52.18 28.4854 52.18 29.1407 52.5792 29.5542L55.7792 32.7542C56.1952 33.1713 56.8707 33.1722 57.2877 32.7561C57.2884 32.7554 57.2891 32.7547 57.2896 32.7542L60.4896 29.5542C60.9055 29.1371 60.9045 28.4619 60.4875 28.0459Z" fill="#E35113"/>
<path d="M23.4358 9.2363C23.4323 9.17404 23.4231 9.1123 23.408 9.05177C23.408 9.04217 23.3963 9.03577 23.392 9.0251C23.3878 9.01444 23.392 9.00697 23.392 8.99844C23.363 8.94657 23.3294 8.89724 23.2918 8.85124C23.2572 8.78871 23.2164 8.72977 23.1702 8.67524C23.1071 8.61937 23.0372 8.57177 22.9622 8.53337C22.9247 8.50151 22.8847 8.47257 22.8427 8.44697L18.576 6.49817C18.0311 6.27444 17.4079 6.53484 17.1842 7.07977C16.9726 7.59511 17.1932 8.18657 17.6907 8.43737L19.8998 9.4475C11.5834 13.8983 6.39403 22.5675 6.40003 32C6.40003 32.5891 6.87763 33.0667 7.4667 33.0667C8.05576 33.0667 8.53336 32.5891 8.53336 32C8.52803 23.6943 12.9202 16.0064 20.0779 11.7931L19.3067 13.4048C19.0524 13.9351 19.2752 14.5711 19.8048 14.8267C19.9487 14.897 20.1066 14.9335 20.2667 14.9334C20.6763 14.9328 21.0494 14.6978 21.2267 14.3286L23.36 9.87737C23.36 9.86671 23.36 9.85497 23.3686 9.84431C23.3963 9.77137 23.4156 9.69551 23.4262 9.61817C23.4444 9.5607 23.458 9.50191 23.4667 9.44217C23.4631 9.37271 23.4528 9.30377 23.4358 9.2363Z" fill="#E35113"/>
</svg>
