<svg width="77" height="64" viewBox="0 0 77 64" fill="none" xmlns="http://www.w3.org/2000/svg">
<path fill-rule="evenodd" clip-rule="evenodd" d="M4.12324 61.7053H10.9587C11.5752 61.7053 12.075 62.2053 12.075 62.8218C12.075 63.4382 11.5752 63.938 10.9587 63.938H4.12324C1.84975 63.938 0 62.0883 0 59.8146V17.7168C0 15.4431 1.84975 13.5935 4.12324 13.5935H29.4686V1.17829C29.4686 0.561807 29.9684 0.0620117 30.5849 0.0620117H45.6198C46.2363 0.0620117 46.7361 0.561807 46.7361 1.17829V13.5935H60.2797C60.8962 13.5935 61.3959 14.0933 61.3959 14.7098C61.3959 15.3263 60.8962 15.8261 60.2797 15.8261H46.6615C46.112 20.0611 42.4845 23.3436 38.1023 23.3436C33.7201 23.3436 30.0927 20.061 29.5431 15.8261H4.12324C3.08078 15.8261 2.23256 16.6743 2.23256 17.7168V59.8145C2.23256 60.8571 3.08078 61.7053 4.12324 61.7053ZM44.5037 2.29457H31.7013V14.7098C31.7013 18.2395 34.5728 21.111 38.1025 21.111C41.6321 21.111 44.5037 18.2395 44.5037 14.7098V2.29457Z" fill="#E35113"/>
<path d="M72.0815 13.5935H65.4884C64.8719 13.5935 64.3721 14.0933 64.3721 14.7098C64.3721 15.3263 64.8719 15.8261 65.4884 15.8261H72.0815C73.1239 15.8261 73.9721 16.6743 73.9721 17.7167V59.8146C73.9721 60.8572 73.1239 61.7054 72.0815 61.7054H16.1807C15.5642 61.7054 15.0645 62.2052 15.0645 62.8217C15.0645 63.4382 15.5642 63.938 16.1807 63.938H72.0815C74.3549 63.938 76.2047 62.0882 76.2047 59.8146V17.7167C76.2047 15.4431 74.3549 13.5935 72.0815 13.5935Z" fill="#E35113"/>
<path d="M41.7108 44.8058H35.6967C35.0802 44.8058 34.5804 45.3056 34.5804 45.9221C34.5804 46.5385 35.0802 47.0383 35.6967 47.0383H41.7108C42.3273 47.0383 42.8271 46.5385 42.8271 45.9221C42.8271 45.3056 42.3273 44.8058 41.7108 44.8058Z" fill="#E35113"/>
<path d="M70.2772 44.8058H47.7247C47.1082 44.8058 46.6084 45.3056 46.6084 45.9221C46.6084 46.5385 47.1082 47.0383 47.7247 47.0383H70.2771C70.8936 47.0383 71.3934 46.5385 71.3934 45.9221C71.3934 45.3056 70.8937 44.8058 70.2772 44.8058Z" fill="#E35113"/>
<path d="M41.7108 51.1052H35.6967C35.0802 51.1052 34.5804 51.605 34.5804 52.2215C34.5804 52.838 35.0802 53.3378 35.6967 53.3378H41.7108C42.3273 53.3378 42.8271 52.838 42.8271 52.2215C42.8271 51.605 42.3273 51.1052 41.7108 51.1052Z" fill="#E35113"/>
<path d="M70.2772 51.1052H47.7247C47.1082 51.1052 46.6084 51.605 46.6084 52.2215C46.6084 52.838 47.1082 53.3378 47.7247 53.3378H70.2771C70.8936 53.3378 71.3934 52.838 71.3934 52.2215C71.3934 51.605 70.8937 51.1052 70.2772 51.1052Z" fill="#E35113"/>
<path d="M71.3935 32.4057C71.3935 31.7892 70.8937 31.2894 70.2773 31.2894H44.9011C44.2846 31.2894 43.7848 31.7892 43.7848 32.4057C43.7848 33.0222 44.2846 33.522 44.9011 33.522H69.161V37.3035H36.813V33.522H39.6884C40.3049 33.522 40.8047 33.0222 40.8047 32.4057C40.8047 31.7892 40.3049 31.2894 39.6884 31.2894H35.6967C35.0802 31.2894 34.5804 31.7892 34.5804 32.4057V38.4198C34.5804 39.0363 35.0802 39.5361 35.6967 39.5361H70.2771C70.8936 39.5361 71.3934 39.0363 71.3934 38.4198V32.4057H71.3935Z" fill="#E35113"/>
<path fill-rule="evenodd" clip-rule="evenodd" d="M4.81116 27.9406C4.81116 27.3241 5.31095 26.8243 5.92744 26.8243H29.0813C29.6978 26.8243 30.1976 27.3241 30.1976 27.9406V58.0106C30.1976 58.6271 29.6978 59.1269 29.0813 59.1269H5.92744C5.31095 59.1269 4.81116 58.6271 4.81116 58.0106V27.9406ZM17.5044 47.5498C12.1134 47.5498 7.66184 51.649 7.10295 56.8942H27.9059C27.347 51.649 22.8955 47.5498 17.5044 47.5498ZM12.3288 40.1418C12.3288 37.288 14.6505 34.9663 17.5043 34.9663C20.3581 34.9663 22.6798 37.288 22.6798 40.1418C22.6798 42.9957 20.3581 45.3174 17.5043 45.3174C14.6506 45.3174 12.3288 42.9955 12.3288 40.1418ZM24.9125 40.1418C24.9125 42.5831 23.7248 44.7516 21.8977 46.102C24.3754 47.019 26.4899 48.6888 27.965 50.8318V29.0569H7.04372V50.8318C8.51899 48.6888 10.6334 47.019 13.1111 46.102C11.2839 44.7516 10.0964 42.5831 10.0964 40.1418C10.0964 36.057 13.4196 32.7338 17.5044 32.7338C21.5893 32.7338 24.9125 36.057 24.9125 40.1418Z" fill="#E35113"/>
<path fill-rule="evenodd" clip-rule="evenodd" d="M41.925 14.7097C41.925 16.8175 40.2102 18.5323 38.1024 18.5323C35.9945 18.5323 34.2798 16.8175 34.2798 14.7097C34.2798 12.6018 35.9945 10.8871 38.1024 10.8871C40.2102 10.8871 41.925 12.6018 41.925 14.7097ZM39.6924 14.7097C39.6924 13.8329 38.9792 13.1196 38.1024 13.1196C37.2256 13.1196 36.5123 13.8329 36.5123 14.7097C36.5123 15.5865 37.2256 16.2997 38.1024 16.2997C38.9792 16.2997 39.6924 15.5865 39.6924 14.7097Z" fill="#E35113"/>
</svg>
